{"title":"Legend.2015.DVDScr.XVID.AC3.HQ.Hive-CM8","uid":13056458,"size":1852717748,"categoryP":"video","categoryS":"movies","magnet":"?xt=urn:btih:d376303726141c01a98678be5b388382dc227dd3&amp;dn=Legend.2015.DVDScr.XVID.AC3.HQ.Hive-CM8&amp;tr=udp%3A%2F%2Ftracker.leechers-paradise.org%3A6969&amp;tr=udp%3A%2F%2Fzer0day.ch%3A1337&amp;tr=udp%3A%2F%2Fopen.demonii.com%3A1337&amp;tr=udp%3A%2F%2Ftracker.coppersurfer.tk%3A6969&amp;tr=udp%3A%2F%2Fexodus.desync.com%3A6969","seeders":0,"leechers":0,"uploader":"TvTeam","files":4,"time":1450663320,"description":"------------------------------------------------------------------------\r\n\r  https://www.torrenting.com\r\n\r\nSign up is OPEN - for time being. Come and have fun.\r\n\r\n------------------------------------------------------------------------[center][img]http://i.imgur.com/RP8PGjk.jpg[/img]\r\n\r\n \r\n[color=blue][size=4][b]Legend.2015.DVDScr.XVID.AC3.HQ.Hive-CM8[/b][/size][/color]\r\n\r\nThx Hive\r\n\r\nCM8 Doing It Right The First Time \r\n\r\nSource: DVD-Screener Big Thanks M8\r\n\r\n\r\nNotes:\r\n\r\nDVDScreener 3 of 40\r\nwill do them all one after each other, 3rd hot title\r\n\r\nEncode:\r\n\r\nQuality was perfect on this.\r\n\r\n\r\ngot very nice\r\nenjoy\r\n\r\nVideo: 720x304 @bitrate 1600 2pass\r\nAudio: English AC3 2.0 Stereo\r\nSample: yes included\r\n\r\n\r\n \nhttp://www.imdb.com/title/tt3569230/\r\n\r\n\r\nGeneral\r\nComplete name                            : Legend.2015.DVDScr.XVID.AC3.HQ.Hive-CM8.avi\r\nFormat                                   : AVI\r\nFormat/Info                              : Audio Video Interleave\r\nFile size                                : 1.72 GiB\r\nDuration                                 : 2h 11mn\r\nOverall bit rate                         : 1 865 Kbps\r\nWriting application                      : Nandub v1.0rc2\r\nWriting library                          : Nandub build 1853/release\r\n\r\nVideo\r\nID                                       : 0\r\nFormat                                   : MPEG-4 Visual\r\nFormat profile                           : Advanced   \r\nFormat settings, BVOP                    : 2\r\nFormat settings, QPel                    : Yes\r\nFormat settings, GMC                     : No warppoints\r\nFormat settings, Matrix                  : Default (H.263)\r\nMuxing mode                              : Packed bitstream\r\nCodec ID                                 : XVID\r\nCodec ID/Hint                            : XviD\r\nDuration                                 : 2h 11mn\r\nBit rate                                 : 1 597 Kbps\r\nWidth                                    : 720 pixels\r\nHeight                                   : 304 pixels\r\nDisplay aspect ratio                     : 2.35:1\r\nFrame rate                               : 29.970 (30000/1001) fps\r\nColor space                              : YUV\r\nChroma subsampling                       : 4:2:0\r\nBit depth                                : 8 bits\r\nScan type                                : Progressive\r\nCompression mode                         : Lossy\r\nBits/(Pixel*Frame)                       : 0.243\r\nStream size                              : 1.47 GiB (86%)\r\nWriting library                          : XviD 1.2.1 (UTC 2008-12-04)\r\n\r\nAudio\r\nID                                       : 1\r\nFormat                                   : AC-3\r\nFormat/Info                              : Audio Coding 3\r\nMode extension                           : CM (complete main)\r\nFormat settings, Endianness              : Big\r\nCodec ID                                 : 2000\r\nDuration                                 : 2h 11mn\r\nBit rate mode                            : Constant\r\nBit rate                                 : 256 Kbps\r\nChannel(s)                               : 2 channels\r\nChannel positions                        : Front: L R\r\nSampling rate                            : 48.0 KHz\r\nFrame rate                               : 31.250 fps (1536 spf)\r\nCompression mode                         : Lossy\r\nStream size                              : 241 MiB (14%)\r\nAlignment                                : Split accross interleaves\r\nInterleave, duration                     : 33 ms (1.00 video frame)\r\nInterleave, preload duration             : 500 ms\r\n\r\n\r\nThe film tells the story of the identical twin gangsters Reggie and Ronnie Kray, two of the most notorious criminals in British history, and their organised crime empire in the East End of London during the 1960s.\r\n\r\nCast\r\n\r\nColin Morgan\t...\tFrank Shea\r\nTom Hardy\t...\tRonald Kray / Reggie Kray\r\nChristopher Eccleston\t...\tNipper Read\r\nJoshua Hill\t...\tConstable Scott\r\nEmily Browning\t...\tFrances Shea \r\n\r\n\r\nSugarB,iNCOMiNG,Izzy,MenaceIISociety,jiinx,SiMPLE,CherryBomb,bigguy79\r\nranbailey,ViSiON,UnKnOwN,YanKeeS,COPYxRIGHT,THC,VAiN,ACAB,DRs\r\nLKRG,Kingstoner,SiMPLE,TiTAN,cadance,PLAYNOW\r\nUnevano,BigVik,Rapeseed,SAFC,goldadvance,KaN1vE,Pinnz,Wayne,HiGH\r\nSeeN,jtr,Limey,ICONiK,TED,rkofan,mrtoke09\r\nMr Hive\r\n\r\nWONDER WHERE ALL THE OLD DDD FOLKS ARE DONT BE SCARED MESSAGE ME \r\n\r\nsupport the producer and watch it in cinema as intended on the big screen \r\n\r\n\r\n\r\nLOOKING FOR ANYTHING YOU WANT TO LOOK AND SOUND BETTER\r\n\r\nCOME FIND US WE DONT BITE \r\n  [/center]","torrent":{"xt":"urn:btih:d376303726141c01a98678be5b388382dc227dd3","amp;dn":"Legend.2015.DVDScr.XVID.AC3.HQ.Hive-CM8","amp;tr":["udp%3A%2F%2Ftracker.leechers-paradise.org%3A6969","udp%3A%2F%2Fzer0day.ch%3A1337","udp%3A%2F%2Fopen.demonii.com%3A1337","udp%3A%2F%2Ftracker.coppersurfer.tk%3A6969","udp%3A%2F%2Fexodus.desync.com%3A6969"],"infoHash":"d376303726141c01a98678be5b388382dc227dd3","infoHashBuffer":{"type":"Buffer","data":[211,118,48,55,38,20,28,1,169,134,120,190,91,56,131,130,220,34,125,211]},"announce":[],"urlList":[]}}